<svg xmlns:svg="http://www.w3.org/2000/svg" xmlns="http://www.w3.org/2000/svg" version="1.1" width="128" height="128"><path d="m98.5 112q0-2.2-1.5-3.7-1.5-1.6-3.5-1.6-2 0-3.5 1.6-1.5 1.6-1.5 3.8 0 2.2 1.5 3.8 1.5 1.6 3.5 1.6 2 0 3.5-1.6 1.5-1.6 1.5-3.7zm19.7 0q0-2.2-1.5-3.7-1.5-1.6-3.5-1.6-2 0-3.5 1.6-1.5 1.6-1.5 3.8 0 2.2 1.5 3.8 1.5 1.6 3.5 1.6 2 0 3.5-1.6 1.5-1.6 1.5-3.7zM128 93.3l0 26.7q0 3.3-2.2 5.7-2.2 2.3-5.2 2.3l-113.2 0q-3.1 0-5.2-2.3Q0 123.3 0 120l0-26.7q0-3.3 2.2-5.7 2.2-2.3 5.2-2.3l35.8 0 10.4 11.3Q58 101.3 64 101.3q6 0 10.5-4.7l10.5-11.3 35.7 0q3.1 0 5.2 2.3Q128 90 128 93.3zM103 45.9q1.3 3.4-1.1 5.8L67.5 89.1q-1.4 1.6-3.5 1.6-2.1 0-3.5-1.6L26.1 51.8Q23.7 49.3 25 45.9q1.3-3.2 4.5-3.2l19.7 0 0-37.3q0-2.2 1.5-3.7Q52.2 0 54.2 0l19.7 0q2 0 3.5 1.6 1.5 1.6 1.5 3.8l0 37.3 19.7 0q3.2 0 4.5 3.3z"/></svg>